<?xml version="1.0" encoding="utf-8"?>
<!-- Generator: Adobe Illustrator 16.0.0, SVG Export Plug-In . SVG Version: 6.00 Build 0)  -->
<!DOCTYPE svg PUBLIC "-//W3C//DTD SVG 1.1//EN" "http://www.w3.org/Graphics/SVG/1.1/DTD/svg11.dtd">
<svg version="1.1" id="圖層_1" xmlns="http://www.w3.org/2000/svg" xmlns:xlink="http://www.w3.org/1999/xlink" x="0px" y="0px"
	 width="400px" height="730px" viewBox="0 0 400 730" enable-background="new 0 0 400 730" xml:space="preserve">
<g>
	<g>
		<path fill-rule="evenodd" clip-rule="evenodd" d="M253,1c16.666,0,33.334,0,50,0c0.916,2.673,2.924,3.113,5.515,3.161
			c10.716,0.2,20.697,2.708,29.502,9.281c14.441,10.784,20.056,25.395,20.043,43.007c-0.117,161.458-0.12,322.917-0.138,484.375
			c-0.004,28.492,0.191,56.985,0.07,85.478c-0.056,13.271-3.872,25.132-13.69,34.809c-3.795,3.741-8.172,6.628-12.86,10.408
			c3.795,0.419,6.891,0.62,9.928,1.151c1.66,0.291,4.279,0.028,4.3,2.454c0.021,2.297-2.418,2.473-4.183,2.673
			c-10.225,1.163-20.437,2.134-30.599,4.063c-22.354,4.246-45.151,3.457-67.728,3.828c-34.621,0.568-69.267,0.589-103.922-0.391
			c-27.64-0.781-54.957-3.756-82.29-7.249c-1.156-0.147-2.34-0.227-3.451-0.546c-1.347-0.389-3.352-0.303-3.249-2.369
			c0.078-1.563,1.714-2.031,2.976-2.232c3.901-0.62,7.834-1.042,11.996-1.571c-0.449-0.495-0.694-0.938-1.069-1.155
			c-18.385-10.605-25.339-26.99-25.304-47.645c0.205-122.968,0.182-245.937,0.145-368.904c-0.001-5.099,1.679-10.654-2.914-15.051
			c-0.725-0.694-0.431-2.555-0.439-3.878c-0.023-3.832-0.042-7.667,0.1-11.495c0.083-2.27-0.63-4.81,1.271-6.666
			c1.882-1.838,2.03-4.09,2.031-6.45c0.001-6.832,0.02-13.663-0.01-20.495c-0.007-1.643,0.337-3.592-1.195-4.653
			c-2.539-1.761-2.459-4.29-2.183-6.726c0.784-6.906,0.096-13.654,2.569-20.807c2.829-8.18,0.985-17.789,0.507-26.771
			c-0.048-0.89-1.002-1.694-1.299-2.614c-3.243-10.025-1.678-20.202-0.882-30.352c0.011-0.138,0.176-0.286,0.302-0.389
			c2.238-1.818,2.135-4.36,2.133-6.872c-0.011-12.497-0.149-24.995-0.005-37.49C39.25,29.432,55.293,9.696,77.645,5.208
			c4.747-0.953,9.574-1.162,14.421-1.16c50.653,0.026,101.307,0.013,151.961,0.025C247.391,4.074,250.781,4.28,253,1z
			 M64.128,339.944c0,76.991-0.002,153.981,0.003,230.973c0.001,7.634,0.046,7.673,7.382,7.674c84.323,0.004,168.646,0.004,252.97,0
			c7.336-0.001,7.472-0.125,7.472-7.622c0.006-153.982,0.006-307.965,0-461.946c-0.001-7.651-0.051-7.682-7.92-7.682
			c-83.824-0.004-167.647-0.003-251.471-0.002c-8.424,0.001-8.435,0.008-8.435,8.632C64.126,186.629,64.127,263.286,64.128,339.944z
			"/>
		<path fill-rule="evenodd" clip-rule="evenodd" fill="none" d="M253,1c-2.219,3.28-5.609,3.074-8.973,3.073
			C193.374,4.061,142.72,4.074,92.066,4.048c-4.847-0.002-9.674,0.207-14.421,1.16C55.293,9.696,39.25,29.432,38.978,52.917
			c-0.144,12.495-0.006,24.993,0.005,37.49c0.002,2.512,0.105,5.054-2.133,6.872c-0.126,0.103-0.291,0.251-0.302,0.389
			c-0.796,10.149-2.361,20.326,0.882,30.352c0.297,0.92,1.251,1.725,1.299,2.614c0.479,8.982,2.322,18.592-0.507,26.771
			c-2.474,7.152-1.786,13.9-2.569,20.807c-0.276,2.436-0.356,4.965,2.183,6.726c1.532,1.062,1.188,3.011,1.195,4.653
			c0.03,6.832,0.012,13.663,0.01,20.495c-0.001,2.36-0.149,4.612-2.031,6.45c-1.901,1.856-1.187,4.396-1.271,6.666
			c-0.141,3.828-0.123,7.663-0.1,11.495c0.008,1.323-0.286,3.184,0.439,3.878c4.593,4.396,2.912,9.952,2.914,15.051
			c0.037,122.968,0.06,245.937-0.145,368.904c-0.035,20.654,6.919,37.039,25.304,47.645c0.375,0.217,0.621,0.66,1.069,1.155
			c-4.162,0.529-8.095,0.951-11.996,1.571c-1.262,0.201-2.898,0.669-2.976,2.232c-0.104,2.066,1.901,1.98,3.249,2.369
			c1.111,0.319,2.294,0.398,3.451,0.546c27.333,3.493,54.65,6.468,82.29,7.249c34.655,0.979,69.301,0.959,103.922,0.391
			c22.576-0.371,45.374,0.418,67.728-3.828c10.162-1.93,20.374-2.9,30.599-4.063c1.765-0.2,4.203-0.376,4.183-2.673
			c-0.021-2.426-2.64-2.163-4.3-2.454c-3.037-0.531-6.133-0.732-9.928-1.151c4.688-3.78,9.065-6.667,12.86-10.408
			c9.818-9.677,13.635-21.538,13.69-34.809c0.121-28.492-0.074-56.985-0.07-85.478c0.018-161.458,0.021-322.917,0.138-484.375
			c0.013-17.612-5.602-32.223-20.043-43.007c-8.805-6.573-18.786-9.081-29.502-9.281C305.924,4.113,303.916,3.673,303,1
			c31.493,0,62.986,0.048,94.479-0.079c2.921-0.012,3.608,0.513,3.606,3.557c-0.093,240.945-0.094,481.891,0.004,722.836
			c0.001,3.278-0.931,3.755-3.9,3.753c-130.804-0.077-261.608-0.092-392.412,0.058c-3.932,0.004-3.832-1.423-3.831-4.346
			C1.004,486.166,1.01,245.554,0.899,4.942c-0.001-3.54,0.858-4.034,4.158-4.029C87.704,1.023,170.352,1,253,1z"/>
		<path fill-rule="evenodd" clip-rule="evenodd" fill="none" d="M64.128,339.944c0-76.658-0.001-153.315,0.001-229.974
			c0-8.624,0.011-8.631,8.435-8.632c83.824-0.001,167.647-0.002,251.471,0.002c7.869,0,7.919,0.03,7.92,7.682
			c0.006,153.981,0.006,307.964,0,461.946c0,7.497-0.136,7.621-7.472,7.622c-84.323,0.004-168.646,0.004-252.97,0
			c-7.335-0.001-7.381-0.04-7.382-7.674C64.126,493.926,64.128,416.936,64.128,339.944z"/>
	</g>
</g>
</svg>
