<?xml version="1.0" encoding="utf-8"?>
<!-- Generator: Adobe Illustrator 16.0.0, SVG Export Plug-In . SVG Version: 6.00 Build 0)  -->
<!DOCTYPE svg PUBLIC "-//W3C//DTD SVG 1.1//EN" "http://www.w3.org/Graphics/SVG/1.1/DTD/svg11.dtd">
<svg version="1.1" id="圖層_1" xmlns="http://www.w3.org/2000/svg" xmlns:xlink="http://www.w3.org/1999/xlink" x="0px" y="0px"
	 width="85.083px" height="99.579px" viewBox="0 0 85.083 99.579" enable-background="new 0 0 85.083 99.579" xml:space="preserve">
<g>
	<g>
		<path fill="none" d="M26.598,45.297c0.753,0.233,1.515,0.396,2.281,0.527c1.385,0.237,2.788,0.334,4.204,0.292
			c2.286-0.068,4.463-0.61,6.561-1.495c0.174-0.073,0.348-0.146,0.52-0.223c0.731-0.33,1.434-0.696,2.113-1.098l-16.202,1.811
			C26.251,45.171,26.42,45.242,26.598,45.297z"/>
		<path fill="none" d="M45.875,40.501c0.199-0.207,0.396-0.418,0.587-0.639c1.681-1.951,3.054-4.078,3.956-6.505
			c0.666-1.788,1.053-3.62,1.178-5.497c0.034-0.52,0.059-1.043,0.051-1.57c-0.026-1.863-0.301-3.669-0.831-5.414
			c-0.304-0.998-0.69-1.979-1.167-2.936c-1.268-2.547-2.98-4.728-5.228-6.492c-0.623-0.488-1.273-0.922-1.937-1.328l3.391,30.352
			C45.876,40.482,45.874,40.492,45.875,40.501z"/>
		<path fill="none" d="M47.856,43.982c0.001-0.001,0.001-0.001,0.002-0.002C47.84,43.988,47.831,43.991,47.856,43.982z"/>
		<path fill="none" d="M53.454,26.021c0.004,0.432,0.006,0.862,0.009,1.293c0.039-0.43,0.077-0.858,0.115-1.288
			C53.536,26.026,53.495,26.021,53.454,26.021z"/>
		<path fill="none" d="M53.5,27.611c0.003-0.057-0.024-0.111-0.042-0.172c-0.023,0.066-0.057,0.133-0.064,0.2
			c-0.09,0.728-0.15,1.459-0.263,2.183c-0.116,0.752-0.28,1.493-0.438,2.318c0.046-0.104,0.064-0.137,0.074-0.171
			C53.174,30.544,53.421,29.091,53.5,27.611z"/>
		<path fill="none" d="M53.462,27.314c-0.003,0.037-0.007,0.073-0.009,0.109c0,0.005,0.003,0.011,0.004,0.016
			c0.003-0.005,0.004-0.011,0.006-0.016C53.463,27.387,53.463,27.351,53.462,27.314z"/>
		<path fill="#FFFFFF" d="M72.659,77.576c-0.365-0.459-0.709-0.935-1.061-1.404c-2.57-3.428-5.146-6.853-7.713-10.284
			c-2.081-2.782-4.154-5.571-6.227-8.36c-2.074-2.787-4.146-5.579-6.217-8.368c-0.021-0.029-0.042-0.058-0.063-0.087
			c-0.813-1.095-1.621-2.19-2.418-3.296c-0.41-0.57-0.961-1.061-1.082-1.804c-0.01,0.003-0.016,0.006-0.021,0.008
			c-0.001,0.001-0.001,0.001-0.002,0.002c-0.025,0.009-0.016,0.006,0.002-0.002c0.044-0.094,0.092-0.196,0.137-0.291
			c0.285-0.599,0.582-1.209,0.869-1.835c0.238-0.521,0.247-1.131,0.654-1.586c0.102-0.113-0.067-0.383-0.297-0.445
			c0.086-0.171,0.145-0.343,0.248-0.481c1.189-1.585,2.136-3.289,2.838-5.112c0.247-0.64,0.466-1.293,0.651-1.961
			c1.454-5.241,1.071-10.345-1.196-15.298c-0.496-1.086-1.078-2.096-1.724-3.052c-1.604-2.372-3.651-4.36-6.108-5.984
			c-0.586-0.387-1.191-0.731-1.809-1.054l0.362,3.24c0.664,0.406,1.314,0.84,1.937,1.328c2.247,1.765,3.96,3.945,5.228,6.492
			c0.477,0.957,0.863,1.938,1.167,2.936c0.53,1.745,0.805,3.551,0.831,5.414c0.008,0.527-0.017,1.051-0.051,1.57
			c-0.125,1.877-0.512,3.709-1.178,5.497c-0.902,2.427-2.275,4.554-3.956,6.505c-0.19,0.221-0.388,0.432-0.587,0.639
			c0.131,1.313-0.818,2.489-2.131,2.637l-1.467,0.163c-0.679,0.401-1.382,0.768-2.113,1.098c-0.172,0.077-0.346,0.149-0.52,0.223
			c-2.098,0.885-4.275,1.427-6.561,1.495c-1.416,0.042-2.819-0.055-4.204-0.292c-0.766-0.132-1.528-0.294-2.281-0.527
			c-0.178-0.056-0.347-0.126-0.523-0.186l-4.489,0.502c0.545,0.302,1.101,0.588,1.677,0.837c0.275,0.12,0.543,0.247,0.827,0.352
			c2.425,0.9,4.925,1.397,7.508,1.47c2.261,0.062,4.473-0.268,6.635-0.928c0.381-0.113,0.737-0.171,0.938,0.23
			c0.183-0.035,0.315-0.094,0.437-0.079c0.973,0.113,1.949,0.104,2.889-0.144c0.686-0.183,1.032,0.056,1.396,0.601
			c0.406,0.608,0.817,1.213,1.226,1.819c1.408,2.085,2.824,4.164,4.242,6.245c2.383,3.498,4.781,6.987,7.15,10.494
			c3.4,5.036,6.782,10.086,10.172,15.128c0.394,0.588,0.832,0.729,1.508,0.489c0.314-0.11,0.621-0.241,0.938-0.342
			c1.629-0.511,2.672-1.71,3.567-3.064C72.934,78.364,72.964,77.958,72.659,77.576z M53.13,29.822
			c0.112-0.724,0.173-1.455,0.263-2.183c0.008-0.067,0.041-0.134,0.064-0.2c-0.001-0.005-0.004-0.011-0.004-0.016
			c0.002-0.036,0.006-0.072,0.009-0.109c-0.003-0.431-0.005-0.861-0.009-1.293c0.041,0,0.082,0.005,0.124,0.005
			c-0.038,0.43-0.076,0.858-0.115,1.288c0.001,0.037,0.001,0.073,0.001,0.109c-0.002,0.005-0.003,0.011-0.006,0.016
			c0.018,0.061,0.045,0.115,0.042,0.172c-0.078,1.48-0.325,2.934-0.733,4.358c-0.01,0.034-0.028,0.066-0.074,0.171
			C52.85,31.315,53.014,30.574,53.13,29.822z"/>
		<path opacity="0.4" fill="#E6E6E6" d="M29.139,4.865c-0.004-0.025-0.008-0.05-0.011-0.075c-0.282,0.039-0.564,0.08-0.846,0.118
			c0.006,0.037,0.012,0.075,0.017,0.109C28.579,4.967,28.859,4.916,29.139,4.865z"/>
		<path opacity="0.4" fill="#E6E6E6" d="M11.402,21.871c-0.292,1.132-0.466,2.279-0.502,3.445c-0.017,0.52-0.006,1.037,0.01,1.554
			c0.003,0.089,0.088,0.177,0.137,0.265c0.099-0.115,0.148-0.194,0.133-0.262c-0.128-0.587,0.086-1.135,0.168-1.701
			c0.031-0.219-0.012-0.455,0.045-0.667c0.197-0.731,0.211-1.475,0.229-2.222c0.006-0.236,0.004-0.471,0.004-0.707
			c-0.045-0.001-0.089-0.004-0.134-0.007C11.462,21.671,11.428,21.77,11.402,21.871z"/>
		<path fill="#FFFFFF" d="M42.277,43.301l1.467-0.163c1.313-0.147,2.262-1.324,2.131-2.637
			C44.802,41.613,43.591,42.528,42.277,43.301z"/>
		<path opacity="0.4" fill="#E6E6E6" d="M42.277,43.301l1.467-0.163c1.313-0.147,2.262-1.324,2.131-2.637
			C44.802,41.613,43.591,42.528,42.277,43.301z"/>
		<path fill="#FFFFFF" d="M20.488,42.194c-0.171-0.132-0.349-0.253-0.571-0.415c-1.512-1.272-2.896-2.739-4.009-4.45
			c-1.23-1.893-2.156-3.931-2.663-6.128c-0.38-1.649-0.57-3.334-0.439-5.039c0.1-1.307,0.168-2.616,0.481-3.895
			c0.461-1.879,1.134-3.674,2.132-5.34c0.969-1.617,2.19-3.025,3.545-4.32c1.874-1.785,4.023-3.171,6.411-4.147
			c1.562-0.64,3.215-0.968,4.903-1.13c2.534-0.243,5.02-0.031,7.462,0.678c1.691,0.49,3.266,1.207,4.744,2.113l-0.362-3.24
			c-1.553-0.81-3.195-1.421-4.924-1.828C33.15,4.099,29.142,4.241,25.195,5.54c-3.124,1.028-5.895,2.663-8.289,4.94
			c-1.643,1.563-3.063,3.294-4.156,5.281c-2.125,3.855-3.027,7.982-2.704,12.375c0.206,2.789,1.014,5.408,2.235,7.915
			c1.476,3.032,3.647,5.476,6.277,7.547c0.961,0.756,1.969,1.429,3.028,2.016l4.489-0.502
			C24.064,44.431,22.189,43.481,20.488,42.194z M29.128,4.79c0.003,0.025,0.007,0.05,0.011,0.075
			c-0.28,0.051-0.56,0.102-0.839,0.152c-0.005-0.035-0.011-0.072-0.017-0.109C28.564,4.869,28.846,4.829,29.128,4.79z
			 M11.622,22.283c-0.018,0.747-0.032,1.49-0.229,2.222c-0.057,0.212-0.014,0.448-0.045,0.667c-0.082,0.566-0.296,1.114-0.168,1.701
			c0.015,0.067-0.034,0.146-0.133,0.262c-0.049-0.088-0.134-0.176-0.137-0.265c-0.016-0.517-0.026-1.034-0.01-1.554
			c0.036-1.166,0.21-2.313,0.502-3.445c0.026-0.101,0.06-0.199,0.09-0.302c0.044,0.003,0.089,0.006,0.134,0.007
			C11.626,21.812,11.628,22.046,11.622,22.283z"/>
		<path opacity="0.4" fill="#FFFFFF" d="M20.488,42.194c-0.171-0.132-0.349-0.253-0.571-0.415c-1.512-1.272-2.896-2.739-4.009-4.45
			c-1.23-1.893-2.156-3.931-2.663-6.128c-0.38-1.649-0.57-3.334-0.439-5.039c0.1-1.307,0.168-2.616,0.481-3.895
			c0.461-1.879,1.134-3.674,2.132-5.34c0.969-1.617,2.19-3.025,3.545-4.32c1.874-1.785,4.023-3.171,6.411-4.147
			c1.562-0.64,3.215-0.968,4.903-1.13c2.534-0.243,5.02-0.031,7.462,0.678c1.691,0.49,3.266,1.207,4.744,2.113l-0.362-3.24
			c-1.553-0.81-3.195-1.421-4.924-1.828C33.15,4.099,29.142,4.241,25.195,5.54c-3.124,1.028-5.895,2.663-8.289,4.94
			c-1.643,1.563-3.063,3.294-4.156,5.281c-2.125,3.855-3.027,7.982-2.704,12.375c0.206,2.789,1.014,5.408,2.235,7.915
			c1.476,3.032,3.647,5.476,6.277,7.547c0.961,0.756,1.969,1.429,3.028,2.016l4.489-0.502
			C24.064,44.431,22.189,43.481,20.488,42.194z M29.128,4.79c0.003,0.025,0.007,0.05,0.011,0.075
			c-0.28,0.051-0.56,0.102-0.839,0.152c-0.005-0.035-0.011-0.072-0.017-0.109C28.564,4.869,28.846,4.829,29.128,4.79z
			 M11.622,22.283c-0.018,0.747-0.032,1.49-0.229,2.222c-0.057,0.212-0.014,0.448-0.045,0.667c-0.082,0.566-0.296,1.114-0.168,1.701
			c0.015,0.067-0.034,0.146-0.133,0.262c-0.049-0.088-0.134-0.176-0.137-0.265c-0.016-0.517-0.026-1.034-0.01-1.554
			c0.036-1.166,0.21-2.313,0.502-3.445c0.026-0.101,0.06-0.199,0.09-0.302c0.044,0.003,0.089,0.006,0.134,0.007
			C11.626,21.812,11.628,22.046,11.622,22.283z"/>
	</g>
	<path opacity="0.2" fill="#E6E6E6" d="M51.596,27.848c0.034-0.52,0.059-1.042,0.051-1.57c-0.026-1.862-0.301-3.669-0.831-5.413
		c-0.304-0.999-0.69-1.979-1.167-2.936c-1.268-2.547-2.98-4.728-5.228-6.492c-1.827-1.435-3.837-2.497-6.025-3.217
		c-0.22-0.072-0.432-0.16-0.656-0.225c-2.442-0.71-4.928-0.922-7.462-0.678c-1.688,0.162-3.341,0.49-4.903,1.13
		c-2.388,0.977-4.537,2.362-6.411,4.147c-1.355,1.295-2.577,2.703-3.545,4.32c-0.998,1.666-1.67,3.461-2.132,5.34
		c-0.313,1.277-0.381,2.587-0.481,3.895c-0.13,1.705,0.06,3.389,0.439,5.038c0.507,2.198,1.433,4.235,2.663,6.129
		c0.646,0.992,1.389,1.893,2.188,2.73c0.58,0.608,1.185,1.185,1.821,1.72c0.223,0.162,0.4,0.284,0.571,0.414
		c1.85,1.401,3.897,2.417,6.11,3.104c0.753,0.233,1.515,0.396,2.281,0.527c1.385,0.235,2.788,0.333,4.204,0.291
		c2.286-0.067,4.463-0.608,6.561-1.495c0.174-0.072,0.348-0.145,0.52-0.223c2.409-1.09,4.56-2.517,6.298-4.534
		c1.681-1.952,3.054-4.08,3.956-6.505C51.084,31.557,51.471,29.726,51.596,27.848z"/>
	<g>
		<g opacity="0.5">
			<path fill="#EEEEEF" d="M41.42,35.546c0.116,1.038-0.633,1.975-1.671,2.091L5.886,41.42c-1.04,0.115-1.976-0.633-2.092-1.671
				L0.012,5.886c-0.117-1.04,0.632-1.976,1.671-2.092l33.862-3.782c1.039-0.116,1.976,0.632,2.092,1.67L41.42,35.546z"/>
			<g>
				<path fill="#EEEEEF" d="M39.344,82.362c0,1.038-0.842,1.878-1.878,1.878H3.664c-1.037,0-1.878-0.84-1.878-1.878V48.559
					c0-1.036,0.841-1.878,1.878-1.878h33.802c1.037,0,1.878,0.842,1.878,1.878V82.362z"/>
				<path fill="#EEEEEF" d="M84.413,82.362c0,1.038-0.842,1.878-1.878,1.878H48.733c-1.037,0-1.879-0.84-1.879-1.878V48.559
					c0-1.036,0.842-1.878,1.879-1.878h33.802c1.036,0,1.878,0.842,1.878,1.878V82.362z"/>
				<path fill="#EEEEEF" d="M84.413,37.618c0,1.037-0.842,1.878-1.878,1.878H48.733c-1.037,0-1.879-0.841-1.879-1.878V3.815
					c0-1.037,0.842-1.878,1.879-1.878h33.802c1.036,0,1.878,0.841,1.878,1.878V37.618z"/>
			</g>
		</g>
		<g>
			<path fill="#FFFFFF" d="M8.913,94.501c-0.501,0.537-1.099,0.806-1.792,0.806H3.439v2.619c0,0.372-0.208,0.558-0.623,0.558
				c-0.394,0-0.59-0.189-0.59-0.568v-6.709c0-0.358,0.115-0.637,0.344-0.838c0.208-0.179,0.497-0.268,0.87-0.268h3.8
				c0.701,0,1.273,0.246,1.717,0.74c0.437,0.486,0.655,1.088,0.655,1.804C9.611,93.368,9.378,93.987,8.913,94.501z M6.992,91.303
				H4.083c-0.43,0-0.644,0.254-0.644,0.762v2.05h3.553c0.422,0,0.744-0.143,0.966-0.429c0.208-0.258,0.311-0.602,0.311-1.03
				c0-0.401-0.111-0.727-0.333-0.978C7.722,91.428,7.407,91.303,6.992,91.303z"/>
			<path fill="#FFFFFF" d="M10.856,98.495c-0.394,0-0.59-0.196-0.59-0.59v-7.429c0-0.386,0.197-0.579,0.59-0.579
				c0.408,0,0.612,0.193,0.612,0.579v7.429C11.468,98.298,11.264,98.495,10.856,98.495z"/>
			<path fill="#FFFFFF" d="M17.769,98.462c-0.408,0-0.612-0.229-0.612-0.687V97.55c-0.694,0.622-1.424,0.934-2.19,0.934
				c-0.794,0-1.424-0.189-1.889-0.568c-0.494-0.387-0.741-0.935-0.741-1.643v-2.931c0-0.451,0.204-0.676,0.612-0.676
				c0.394,0,0.591,0.225,0.591,0.676v2.415c0,1.045,0.58,1.567,1.739,1.567c0.451,0,0.87-0.161,1.256-0.483
				C16.979,96.477,17.2,96.03,17.2,95.5v-2.157c0-0.451,0.197-0.676,0.59-0.676c0.401,0,0.601,0.225,0.601,0.676v4.434
				C18.392,98.234,18.184,98.462,17.769,98.462z"/>
			<path fill="#FFFFFF" d="M21.279,94.104c-0.379,0.229-0.647,0.491-0.805,0.784v3.006c0,0.394-0.204,0.59-0.612,0.59
				c-0.394,0-0.59-0.196-0.59-0.59v-4.616c0-0.387,0.197-0.579,0.59-0.579c0.401,0,0.605,0.192,0.612,0.579v0.247
				c0.529-0.551,1.238-0.826,2.125-0.826c0.73,0,1.095,0.203,1.095,0.611c0,0.372-0.208,0.559-0.623,0.559
				c-0.086,0-0.215-0.019-0.387-0.054c-0.165-0.021-0.29-0.032-0.375-0.032C21.987,93.783,21.644,93.89,21.279,94.104z"/>
			<path fill="#FFFFFF" d="M30.339,98.301c-0.122,0.129-0.268,0.193-0.44,0.193c-0.165,0-0.315-0.071-0.451-0.215L27,95.704
				l-1.406,0.795v1.363c0,0.422-0.218,0.633-0.655,0.633c-0.365,0-0.547-0.211-0.547-0.633v-7.343c0-0.415,0.197-0.622,0.59-0.622
				c0.408,0,0.612,0.207,0.612,0.622v4.584l3.822-2.147c0.136-0.078,0.239-0.118,0.311-0.118c0.179,0,0.34,0.058,0.483,0.172
				c0.129,0.107,0.193,0.255,0.193,0.44c0,0.2-0.107,0.368-0.322,0.505l-1.933,1.095l2.244,2.361
				c0.129,0.136,0.193,0.265,0.193,0.387C30.586,97.983,30.503,98.151,30.339,98.301z"/>
			<path fill="#FFFFFF" d="M41.825,97.54c-0.458,0.344-0.862,0.576-1.213,0.697c-0.458,0.172-1.023,0.258-1.696,0.258
				c-1.353,0-2.39-0.376-3.113-1.127c-0.716-0.737-1.074-1.782-1.074-3.135c0-1.267,0.394-2.304,1.181-3.112
				c0.787-0.816,1.814-1.224,3.081-1.224c1.402,0,2.479,0.433,3.231,1.299c0.258,0.293,0.387,0.551,0.387,0.772
				c0,0.38-0.201,0.569-0.602,0.569c-0.179,0-0.418-0.144-0.719-0.43c-0.416-0.387-0.745-0.647-0.988-0.783
				c-0.394-0.229-0.83-0.344-1.31-0.344c-0.88,0-1.603,0.325-2.168,0.977c-0.529,0.623-0.794,1.381-0.794,2.275
				c0,0.952,0.239,1.707,0.719,2.266c0.508,0.601,1.231,0.901,2.168,0.901c0.787,0,1.503-0.286,2.147-0.858
				c0.15-0.144,0.304-0.29,0.461-0.44c0.222-0.186,0.39-0.279,0.504-0.279c0.158,0,0.301,0.062,0.43,0.183
				c0.122,0.122,0.183,0.262,0.183,0.419C42.641,96.759,42.368,97.131,41.825,97.54z"/>
			<path fill="#FFFFFF" d="M48.727,98.462c-0.408,0-0.612-0.229-0.612-0.687V97.55c-0.694,0.622-1.425,0.934-2.19,0.934
				c-0.793,0-1.423-0.189-1.889-0.568c-0.494-0.387-0.741-0.935-0.741-1.643v-2.931c0-0.451,0.204-0.676,0.612-0.676
				c0.394,0,0.591,0.225,0.591,0.676v2.415c0,1.045,0.58,1.567,1.739,1.567c0.45,0,0.869-0.161,1.256-0.483
				c0.443-0.364,0.665-0.812,0.665-1.342v-2.157c0-0.451,0.196-0.676,0.591-0.676c0.4,0,0.601,0.225,0.601,0.676v4.434
				C49.349,98.234,49.141,98.462,48.727,98.462z"/>
			<path fill="#FFFFFF" d="M56.208,96.809c0,1.103-1.012,1.653-3.037,1.653c-0.701,0-1.356-0.082-1.965-0.247
				c-0.837-0.229-1.256-0.579-1.256-1.052c0-0.322,0.168-0.482,0.505-0.482c0.114,0,0.337,0.057,0.665,0.171
				c0.416,0.15,0.694,0.244,0.838,0.279c0.623,0.15,1.17,0.226,1.643,0.226c0.865,0,1.299-0.196,1.299-0.591
				c0-0.192-0.258-0.343-0.773-0.45c-0.537-0.093-1.076-0.187-1.621-0.279c-0.794-0.15-1.346-0.308-1.652-0.473
				c-0.516-0.271-0.773-0.68-0.773-1.224c0-0.586,0.351-1.03,1.053-1.331c0.543-0.229,1.18-0.343,1.91-0.343
				c0.924,0,1.628,0.1,2.115,0.3c0.457,0.187,0.687,0.455,0.687,0.806c0,0.364-0.193,0.547-0.579,0.547
				c-0.115,0-0.416-0.093-0.902-0.278c-0.486-0.187-0.951-0.279-1.396-0.279c-1.081,0-1.62,0.218-1.62,0.654
				c0,0.158,0.275,0.294,0.826,0.408l1.588,0.226C55.393,95.292,56.208,95.879,56.208,96.809z"/>
			<path fill="#FFFFFF" d="M59.579,96.649c0,0.501,0.271,0.751,0.816,0.751c0.221,0,0.475-0.093,0.762-0.279
				c0.286-0.186,0.482-0.279,0.59-0.279c0.122,0,0.229,0.054,0.322,0.161c0.094,0.107,0.14,0.226,0.14,0.354
				c0,0.329-0.261,0.608-0.784,0.837c-0.422,0.193-0.83,0.29-1.223,0.29c-0.545,0-0.974-0.15-1.289-0.45
				c-0.343-0.315-0.515-0.777-0.515-1.385v-2.705h-1.406c-0.308,0-0.462-0.179-0.462-0.537c0-0.15,0.047-0.275,0.141-0.376
				c0.085-0.1,0.195-0.15,0.332-0.15h1.396v-1.642c0-0.179,0.054-0.326,0.161-0.44c0.1-0.114,0.24-0.172,0.418-0.172
				c0.18,0,0.326,0.058,0.44,0.172c0.107,0.107,0.161,0.254,0.161,0.44v1.642H61.2c0.365,0,0.547,0.176,0.547,0.526
				c0,0.358-0.182,0.537-0.547,0.537h-1.621V96.649z"/>
			<path fill="#FFFFFF" d="M69.122,95.553c0,0.845-0.34,1.55-1.02,2.115c-0.645,0.529-1.393,0.794-2.244,0.794
				c-0.865,0-1.617-0.265-2.254-0.794c-0.68-0.565-1.02-1.271-1.02-2.115c0-0.852,0.34-1.553,1.02-2.104
				c0.637-0.522,1.389-0.783,2.254-0.783c0.859,0,1.61,0.261,2.254,0.783C68.786,94,69.122,94.702,69.122,95.553z M67.876,95.564
				c0-0.521-0.208-0.966-0.622-1.331c-0.395-0.329-0.859-0.493-1.396-0.493c-0.543,0-1.012,0.164-1.406,0.493
				c-0.414,0.365-0.622,0.81-0.622,1.331c0,0.537,0.204,0.98,0.612,1.331c0.4,0.344,0.873,0.516,1.416,0.516
				c0.537,0,1.01-0.175,1.418-0.526C67.676,96.542,67.876,96.101,67.876,95.564z"/>
			<path fill="#FFFFFF" d="M77.462,98.462c-0.394,0-0.591-0.211-0.591-0.633v-2.791c0-0.78-0.4-1.17-1.202-1.17
				c-0.315,0-0.591,0.114-0.826,0.343c-0.229,0.236-0.344,0.512-0.344,0.827v2.791c0,0.422-0.196,0.633-0.591,0.633
				c-0.393,0-0.59-0.211-0.59-0.633v-2.855c0-0.737-0.34-1.105-1.02-1.105c-0.315,0-0.608,0.125-0.881,0.375
				c-0.301,0.266-0.45,0.559-0.45,0.881v2.705c0,0.422-0.193,0.633-0.58,0.633c-0.407,0-0.612-0.211-0.612-0.633v-4.584
				c0-0.387,0.208-0.579,0.623-0.579c0.473,0,0.705,0.265,0.697,0.794c0.459-0.529,1.023-0.794,1.697-0.794
				c0.68,0,1.234,0.308,1.663,0.923c0.243-0.379,0.501-0.634,0.772-0.763c0.244-0.106,0.602-0.16,1.074-0.16
				c0.586,0,1.026,0.179,1.32,0.536c0.293,0.351,0.439,0.83,0.439,1.438v3.188C78.063,98.251,77.863,98.462,77.462,98.462z"/>
			<path fill="#FFFFFF" d="M84.922,96.809c0,1.103-1.013,1.653-3.037,1.653c-0.702,0-1.357-0.082-1.965-0.247
				c-0.838-0.229-1.256-0.579-1.256-1.052c0-0.322,0.168-0.482,0.504-0.482c0.115,0,0.337,0.057,0.666,0.171
				c0.415,0.15,0.693,0.244,0.838,0.279c0.622,0.15,1.17,0.226,1.642,0.226c0.866,0,1.299-0.196,1.299-0.591
				c0-0.192-0.257-0.343-0.772-0.45c-0.537-0.093-1.077-0.187-1.621-0.279c-0.795-0.15-1.346-0.308-1.653-0.473
				c-0.515-0.271-0.772-0.68-0.772-1.224c0-0.586,0.35-1.03,1.052-1.331c0.544-0.229,1.181-0.343,1.911-0.343
				c0.923,0,1.627,0.1,2.114,0.3c0.458,0.187,0.687,0.455,0.687,0.806c0,0.364-0.193,0.547-0.579,0.547
				c-0.114,0-0.415-0.093-0.901-0.278c-0.487-0.187-0.952-0.279-1.396-0.279c-1.08,0-1.62,0.218-1.62,0.654
				c0,0.158,0.275,0.294,0.826,0.408l1.589,0.226C84.107,95.292,84.922,95.879,84.922,96.809z"/>
		</g>
		<g>
			<path fill="none" d="M51.569,27.861c0.034-0.52,0.058-1.043,0.051-1.57c-0.027-1.863-0.301-3.67-0.831-5.414
				c-0.304-0.998-0.69-1.979-1.167-2.936c-1.268-2.547-2.98-4.728-5.228-6.492c-1.827-1.436-3.837-2.496-6.025-3.217l3.051,27.314
				c0.116,1.038-0.633,1.976-1.671,2.091l-21.68,2.422c0.58,0.607,1.186,1.185,1.821,1.72c0.223,0.162,0.4,0.283,0.572,0.415
				c1.849,1.4,3.896,2.417,6.11,3.104c0.752,0.233,1.515,0.396,2.281,0.527c1.384,0.237,2.787,0.334,4.203,0.292
				c2.287-0.068,4.464-0.61,6.562-1.495c0.174-0.073,0.348-0.146,0.521-0.223c2.408-1.091,4.56-2.518,6.298-4.536
				c1.681-1.951,3.054-4.078,3.956-6.505C51.056,31.57,51.444,29.738,51.569,27.861z"/>
			<path fill="#E6E6E6" d="M47.829,43.982c0.001-0.001,0.001-0.001,0.001-0.002C47.813,43.988,47.803,43.991,47.829,43.982z"/>
			<path fill="#FFFFFF" d="M72.631,77.576c-0.365-0.459-0.709-0.935-1.061-1.404c-2.57-3.428-5.146-6.853-7.713-10.284
				c-2.081-2.782-4.153-5.571-6.227-8.36c-2.074-2.787-4.146-5.579-6.217-8.368c-0.021-0.029-0.041-0.058-0.063-0.087
				c-0.813-1.095-1.621-2.19-2.418-3.296c-0.41-0.57-0.962-1.061-1.082-1.804c-0.01,0.003-0.016,0.006-0.022,0.008
				c0,0.001,0,0.001-0.001,0.002c-0.025,0.009-0.016,0.006,0.001-0.002c0.044-0.094,0.093-0.196,0.138-0.291
				c0.286-0.599,0.582-1.209,0.869-1.835c0.238-0.521,0.246-1.131,0.654-1.586c0.102-0.113-0.068-0.383-0.297-0.445
				c0.086-0.171,0.145-0.343,0.248-0.481c1.189-1.585,2.135-3.289,2.838-5.112c0.246-0.64,0.466-1.293,0.651-1.961
				c1.454-5.241,1.071-10.345-1.196-15.298c-0.496-1.086-1.078-2.096-1.725-3.052c-1.604-2.372-3.65-4.36-6.107-5.983
				c-1.812-1.197-3.777-2.057-5.863-2.639c-0.29-0.081-0.575-0.174-0.869-0.244c-4.049-0.953-8.057-0.812-12.004,0.487
				c-3.124,1.028-5.895,2.663-8.288,4.939c-1.644,1.563-3.063,3.295-4.156,5.282c-2.125,3.855-3.027,7.983-2.704,12.375
				c0.206,2.789,1.014,5.408,2.235,7.915c0.778,1.6,1.755,3.031,2.885,4.334c1.013,1.169,2.149,2.234,3.392,3.213
				c1.457,1.146,3.01,2.121,4.706,2.853c0.275,0.12,0.544,0.247,0.826,0.352c2.425,0.9,4.926,1.397,7.509,1.47
				c2.261,0.062,4.473-0.268,6.634-0.928c0.381-0.113,0.737-0.171,0.939,0.23c0.183-0.035,0.314-0.094,0.437-0.079
				c0.973,0.113,1.949,0.104,2.889-0.144c0.687-0.183,1.032,0.056,1.396,0.601c0.406,0.608,0.818,1.213,1.227,1.819
				c1.408,2.085,2.825,4.164,4.241,6.245c2.384,3.498,4.782,6.987,7.151,10.494c3.4,5.036,6.782,10.086,10.172,15.128
				c0.395,0.588,0.832,0.729,1.508,0.489c0.313-0.11,0.621-0.241,0.938-0.342c1.629-0.511,2.672-1.71,3.568-3.064
				C72.907,78.364,72.938,77.958,72.631,77.576z M53.102,29.822c0.113-0.724,0.174-1.455,0.264-2.183
				c0.008-0.067,0.041-0.134,0.064-0.2c-0.001-0.005-0.004-0.011-0.004-0.016c0.002-0.036,0.006-0.072,0.01-0.109
				c-0.004-0.431-0.006-0.861-0.01-1.293c0.042,0,0.083,0.005,0.124,0.005c-0.039,0.43-0.076,0.858-0.114,1.288
				c0,0.037,0,0.073,0,0.109c-0.002,0.005-0.003,0.011-0.006,0.016c0.019,0.061,0.045,0.115,0.043,0.172
				c-0.08,1.48-0.325,2.934-0.734,4.358c-0.01,0.034-0.027,0.066-0.074,0.171C52.823,31.315,52.987,30.574,53.102,29.822z
				 M11.594,22.283c-0.018,0.747-0.031,1.49-0.229,2.222c-0.057,0.212-0.014,0.448-0.045,0.667
				c-0.081,0.566-0.295,1.114-0.168,1.701c0.015,0.067-0.035,0.146-0.133,0.262c-0.049-0.088-0.135-0.176-0.137-0.265
				c-0.016-0.517-0.027-1.034-0.01-1.554c0.036-1.166,0.21-2.314,0.502-3.445c0.026-0.101,0.06-0.199,0.09-0.302
				c0.044,0.003,0.089,0.007,0.134,0.008C11.598,21.812,11.601,22.047,11.594,22.283z M29.101,4.79
				c0.002,0.025,0.007,0.05,0.011,0.075c-0.28,0.051-0.56,0.102-0.839,0.152c-0.006-0.035-0.011-0.073-0.017-0.11
				C28.537,4.869,28.818,4.829,29.101,4.79z M40.137,44.399c-0.173,0.077-0.347,0.149-0.521,0.223
				c-2.097,0.885-4.275,1.427-6.562,1.495c-1.416,0.042-2.818-0.055-4.203-0.292c-0.767-0.132-1.529-0.294-2.281-0.527
				c-2.213-0.687-4.261-1.703-6.11-3.104c-0.171-0.132-0.349-0.253-0.572-0.415c-0.635-0.535-1.241-1.112-1.821-1.72
				c-0.799-0.837-1.543-1.738-2.188-2.73c-1.229-1.893-2.156-3.931-2.663-6.128c-0.38-1.649-0.57-3.334-0.44-5.039
				c0.101-1.307,0.168-2.616,0.482-3.895c0.461-1.879,1.134-3.674,2.132-5.339c0.969-1.618,2.19-3.026,3.545-4.321
				c1.874-1.785,4.023-3.172,6.412-4.147c1.561-0.64,3.214-0.968,4.903-1.13c2.534-0.242,5.019-0.031,7.461,0.678
				c0.224,0.064,0.436,0.152,0.656,0.225c2.188,0.721,4.198,1.781,6.025,3.217c2.247,1.765,3.96,3.945,5.228,6.492
				c0.477,0.957,0.863,1.938,1.167,2.936c0.53,1.744,0.804,3.551,0.831,5.414c0.007,0.527-0.017,1.051-0.051,1.57
				c-0.125,1.877-0.513,3.709-1.178,5.497c-0.902,2.427-2.275,4.554-3.956,6.505C44.697,41.881,42.545,43.308,40.137,44.399z"/>
			<path fill="#FFFFFF" d="M11.375,21.871c-0.292,1.131-0.466,2.279-0.502,3.445c-0.017,0.52-0.005,1.037,0.01,1.554
				c0.002,0.089,0.087,0.177,0.137,0.265c0.099-0.115,0.148-0.194,0.133-0.262c-0.127-0.587,0.087-1.135,0.168-1.701
				c0.031-0.219-0.012-0.455,0.045-0.667c0.198-0.731,0.211-1.475,0.229-2.222c0.006-0.235,0.004-0.471,0.004-0.706
				c-0.045-0.001-0.089-0.005-0.134-0.008C11.435,21.671,11.401,21.77,11.375,21.871z"/>
			<polygon fill="#FFFFFF" points="53.426,27.423 53.43,27.439 53.436,27.423 			"/>
			<path fill="#FFFFFF" d="M53.473,27.611c0.002-0.057-0.024-0.111-0.043-0.172c-0.023,0.066-0.057,0.133-0.064,0.2
				c-0.09,0.728-0.15,1.459-0.264,2.183c-0.115,0.752-0.279,1.493-0.438,2.318c0.047-0.104,0.064-0.137,0.074-0.171
				C53.148,30.544,53.393,29.091,53.473,27.611z"/>
			<path fill="#FFFFFF" d="M53.426,26.021c0.004,0.432,0.006,0.862,0.01,1.293c0.038-0.43,0.075-0.858,0.114-1.288
				C53.509,26.026,53.468,26.021,53.426,26.021z"/>
			<path fill="#FFFFFF" d="M53.436,27.314c-0.004,0.037-0.008,0.073-0.01,0.109h0.01C53.436,27.387,53.436,27.351,53.436,27.314z"/>
			<path fill="#FFFFFF" d="M29.111,4.865c-0.003-0.025-0.008-0.05-0.011-0.075c-0.282,0.039-0.563,0.079-0.846,0.118
				c0.006,0.037,0.011,0.075,0.017,0.11C28.552,4.967,28.832,4.916,29.111,4.865z"/>
		</g>
	</g>
</g>
<g>
</g>
<g>
</g>
<g>
</g>
<g>
</g>
<g>
</g>
<g>
</g>
</svg>
