<?xml version="1.0" encoding="utf-8"?>
<!-- Generator: Adobe Illustrator 16.0.0, SVG Export Plug-In . SVG Version: 6.00 Build 0)  -->
<!DOCTYPE svg PUBLIC "-//W3C//DTD SVG 1.1//EN" "http://www.w3.org/Graphics/SVG/1.1/DTD/svg11.dtd">
<svg version="1.1" id="圖層_1" xmlns="http://www.w3.org/2000/svg" xmlns:xlink="http://www.w3.org/1999/xlink" x="0px" y="0px"
	 width="128px" height="128px" viewBox="0 0 128 128" enable-background="new 0 0 128 128" xml:space="preserve">
<g>
	<path fill-rule="evenodd" clip-rule="evenodd" d="M11.953,64.389c0-13.988-0.04-27.977,0.017-41.964
		c0.029-7.288,3.057-10.289,10.318-10.297c27.809-0.03,55.618-0.035,83.429-0.016c7.277,0.006,10.321,2.99,10.342,10.274
		c0.082,28.143,0.123,56.285,0.118,84.428c-0.001,6.774-2.938,9.896-9.694,9.918c-28.309,0.092-56.618,0.091-84.926,0.002
		c-6.772-0.021-9.704-3.139-9.73-9.883c-0.055-14.154-0.017-28.309-0.017-42.463C11.857,64.389,11.905,64.389,11.953,64.389z
		 M95.896,24.144c-0.91-0.129-1.24-0.225-1.566-0.216c-15.668,0.433-25.557,9.267-31.915,22.613
		c-3.78,7.936-6.706,16.275-10.079,24.408c-3.796,9.151-8.854,16.913-20.047,17.057c0,5.633,0,10.719,0,15.96
		c9.977-0.033,18.622-3.021,24.75-10.439c4.373-5.293,7.622-11.601,10.813-17.746c1.447-2.787,2.838-3.95,5.959-3.771
		c4.592,0.264,9.211,0.068,13.968,0.068c0-5.664,0-10.723,0-16.242c-3.858,0-7.421,0-11.456,0
		c3.574-9.534,9.333-15.398,19.574-15.971C95.896,34.571,95.896,29.482,95.896,24.144z M107.934,13.622
		c0-0.073-0.001-0.146-0.002-0.219c-29.234,0-58.471,0-87.707,0c0,0.072,0.001,0.146,0.001,0.219
		C49.462,13.622,78.697,13.622,107.934,13.622z"/>
	<path fill-rule="evenodd" clip-rule="evenodd" fill="#FFFFFF" d="M107.934,13.622c-29.236,0-58.472,0-87.708,0
		c0-0.073,0-0.146-0.001-0.219c29.236,0,58.472,0,87.707,0C107.933,13.476,107.934,13.549,107.934,13.622z"/>
</g>
</svg>
