<?xml version="1.0" encoding="utf-8"?>
<!-- Generator: Adobe Illustrator 16.0.0, SVG Export Plug-In . SVG Version: 6.00 Build 0)  -->
<!DOCTYPE svg PUBLIC "-//W3C//DTD SVG 1.1//EN" "http://www.w3.org/Graphics/SVG/1.1/DTD/svg11.dtd">
<svg version="1.1" id="圖層_1" xmlns="http://www.w3.org/2000/svg" xmlns:xlink="http://www.w3.org/1999/xlink" x="0px" y="0px"
	 width="513.11px" height="513.154px" viewBox="0 0 513.11 513.154" enable-background="new 0 0 513.11 513.154"
	 xml:space="preserve">
<g>
	<path fill-rule="evenodd" clip-rule="evenodd" fill="#A3101E" d="M497.924,468.979c-0.263,6.357,1.126,12.782-0.755,19.073
		c-3.482-0.009-6.978-0.021-10.471-0.021c-152.792-0.005-305.585-0.009-458.377-0.013c-1.833,0-3.683-0.182-5.495,0.009
		c-4.007,0.421-4.997-1.336-4.963-5.182c0.187-20.826,0.085-41.655,0.121-62.483c0.051-29.822,0.136-59.646,0.206-89.469
		c14.793,5.337,29.414,11.138,44.569,15.467c17.176,4.905,34.479,9.172,52.017,12.604c11.987,2.347,24.084,3.885,36.121,5.854
		c15.305-0.007,30.609-0.014,45.915-0.021c41.628,0.855,83.119-0.405,124.199-8.025l-0.146,0.015
		c0.504,0.343,1.008,0.686,1.512,1.028c0.316,0.053,0.484,0.241,0.505,0.564c0.339,0.48,0.679,0.96,1.019,1.439l-0.03-0.039
		c0.383,0.928,1.173,1.053,2.036,1.035l-0.049-0.036c0.35,0.348,0.699,0.696,1.049,1.043l-0.05-0.039
		c0.512,0.343,1.023,0.686,1.535,1.029l0.246-0.099c0.42,0.365,0.841,0.731,1.261,1.098l-0.029-0.035
		c0.385,0.92,1.142,1.096,2.028,1.012l-0.031-0.008c0.696,1.307,2.02,1.664,3.267,2.058c7.72,2.435,15.647,2.836,23.536,1.468
		c3.548-0.616,7.78,0.026,10.378-3.597l0.248,0.092c1.006,0.049,2.002,0.077,2.538-1.03l-0.056,0.03
		c0.952,0.044,1.778-0.118,2.036-1.227c1.023-1.589,1.005-3.364,1.011-5.168c0.017-4.875,0.105-9.751,0.166-14.625
		c12.904-1.635,25.05-6.192,37.218-10.325c27.666-9.396,54.354-21.181,80.191-34.858c1.599-0.847,3.153-1.906,5.112-1.709
		c0.07,29.764,0.141,59.527,0.212,89.291C497.789,413.113,497.856,441.045,497.924,468.979z"/>
	<path fill-rule="evenodd" clip-rule="evenodd" fill="#E92F39" d="M18.189,330.893c-0.07,29.823-0.154,59.646-0.206,89.469
		c-0.036,20.828,0.066,41.657-0.121,62.483c-0.034,3.846,0.956,5.603,4.963,5.182c1.812-0.19,3.662-0.009,5.495-0.009
		c152.792,0.004,305.585,0.008,458.377,0.013c3.493,0,6.988,0.013,10.471,0.021c1.592,3.9-1.105,5.052-3.944,5.778
		c-1.571,0.402-3.313,0.167-4.978,0.167c-153.605,0.005-307.21,0.006-460.815,0.002c-8.698,0-9.863-1.131-9.863-9.708
		c0.001-150.273,0.001-300.547,0.062-450.82c0.002-4.42-1.66-10.34,1.225-12.839c2.51-2.174,8.236-0.73,12.54-0.727
		c39.148,0.036,78.295,0.107,117.444,0.169c0.25,1.856-0.984,2.975-1.928,4.363c-11.739,17.277-17.433,35.894-11.995,56.787
		c4.666,17.927,16.456,30.647,30.69,41.545c2.288,1.752,5.611,2.438,6.291,5.911c-4.824,0.056-9.65,0.132-14.475,0.16
		c-6.59,0.039-6.563,0.023-6.58,6.592c-0.09,33.796-0.195,67.592-0.296,101.387c-1.659,0.014-3.265-0.069-4.926-0.497
		c-22.983-5.916-44.864-14.661-65.424-26.431c-14.997-8.584-29.24-18.371-41.533-30.715c-6.099-6.123-12.325-12.121-17.352-19.211
		c-0.57-0.805-1.3-1.807-2.356-1.562c-1.245,0.289-0.9,1.588-0.947,2.536c-0.049,0.997-0.014,1.999-0.014,2.999
		c-0.014,53.657-0.029,107.314-0.03,160.971C17.965,326.903,18.111,328.897,18.189,330.893z"/>
	<path fill-rule="evenodd" clip-rule="evenodd" fill="#FB3B43" d="M171.899,128.68c-0.681-3.473-4.004-4.159-6.292-5.911
		c-14.234-10.898-26.024-23.618-30.69-41.545c-5.438-20.893,0.256-39.509,11.995-56.787c0.943-1.388,2.178-2.506,1.928-4.363
		c1.16-0.06,2.32-0.17,3.48-0.17c75.02-0.01,150.038-0.011,225.057-0.004c1.16,0,2.32,0.109,3.479,0.167
		c-0.175,1.578,0.601,2.88,1.17,4.265c8.563,20.837,7.904,41.386-2.201,61.526c-7.754,15.45-19.455,27.547-32.996,38.001
		c-1.716,1.325-3.6,2.438-4.025,4.811c-8.625,0.046-17.253,0.24-25.874,0.07c-3.913-0.078-5.29,1.33-5.207,5.216
		c0.17,7.957-0.023,15.922-0.066,23.883c-7.938,1.744-15.443,5.198-23.622,5.994c-1.22-9.36-2.281-18.745-3.711-28.073
		c-1.069-6.974-1.28-6.938-8.681-6.946C241.062,128.771,206.48,128.726,171.899,128.68z"/>
	<path fill-rule="evenodd" clip-rule="evenodd" fill="#E92F39" d="M342.804,128.671c0.426-2.373,2.31-3.486,4.025-4.811
		c13.541-10.454,25.242-22.551,32.996-38.001c10.105-20.14,10.765-40.689,2.201-61.526c-0.569-1.385-1.345-2.687-1.17-4.265
		c37.966-0.06,75.931-0.101,113.896-0.223c2.364-0.008,3.207,0.67,3.145,3.081c-0.098,3.824,0.212,7.655,0.213,11.484
		c0.021,143.544,0.026,287.09,0.023,430.634c0,1.319-0.136,2.64-0.209,3.947c-0.067-27.945-0.135-55.877-0.201-83.811
		c-0.071-29.764-0.142-59.527-0.21-89.291c0.078-0.994,0.225-1.988,0.225-2.982c-0.002-59.115-0.014-118.229-0.052-177.343
		c-0.001-1.069,0.48-2.372-1.107-3.27c-0.875,1.125-1.946,2.172-2.627,3.429c-11.686,21.603-27.592,39.641-46.054,55.694
		c-21.764,18.922-46.169,33.492-72.471,44.977c-5.232,2.285-10.354,5.425-16.415,5.426c-0.041-1.992-0.116-3.984-0.117-5.976
		c-0.015-27.079-0.089-54.16,0.046-81.239c0.021-4.261-1.233-6.147-5.686-5.825C349.792,129.029,346.289,128.728,342.804,128.671z"
		/>
	<path fill-rule="evenodd" clip-rule="evenodd" fill="#CC1A29" d="M359.012,221.817c6.061,0,11.183-3.14,16.415-5.425
		c26.302-11.484,50.707-26.055,72.471-44.977c18.462-16.053,34.368-34.091,46.054-55.694c0.681-1.257,1.752-2.304,2.627-3.429
		c1.588,0.898,1.106,2.201,1.107,3.27c0.038,59.115,0.05,118.228,0.052,177.343c0,0.994-0.146,1.988-0.225,2.982
		c-1.961-0.197-3.516,0.862-5.114,1.709c-25.837,13.678-52.525,25.463-80.191,34.858c-12.168,4.133-24.313,8.69-37.218,10.325
		c-0.259-9.214-0.261-9.192-9.422-10.159c-4.725-0.498-6.594-3.754-6.602-7.929C358.905,290.402,358.979,256.109,359.012,221.817z"
		/>
	<path fill-rule="evenodd" clip-rule="evenodd" fill="#CC1A29" d="M18.189,330.893c-0.078-1.995-0.224-3.989-0.224-5.984
		c0-53.657,0.016-107.314,0.03-160.971c0-1-0.035-2.002,0.014-2.999c0.047-0.947-0.298-2.247,0.947-2.536
		c1.057-0.245,1.786,0.757,2.356,1.562c5.027,7.09,11.253,13.088,17.352,19.211c12.293,12.344,26.536,22.131,41.533,30.715
		c20.56,11.77,42.441,20.515,65.424,26.431c1.661,0.428,3.267,0.511,4.927,0.497c0.084,2.151,0.236,4.303,0.24,6.455
		c0.057,40.178,0.097,80.354,0.141,120.532c-0.012,0.338-0.022,0.675-0.033,1.013c-12.037-1.97-24.134-3.508-36.121-5.854
		c-17.537-3.433-34.84-7.699-52.017-12.604C47.604,342.03,32.982,336.229,18.189,330.893z"/>
	<path fill-rule="evenodd" clip-rule="evenodd" fill="#CC1A29" d="M321.011,356.772c-41.08,7.62-82.571,8.881-124.198,8.025
		c-0.028-0.435-0.057-0.87-0.085-1.306c1.331-2.088,1.188-4.424,1.189-6.757c0.019-28.627,0.055-57.254,0.087-85.882
		c24.783,0.013,49.566,0.036,74.351,0.011c1.561-0.002,3.406,0.637,4.497-1.237c1.7-1.811,2.07-3.965,2.037-6.403
		c-0.077-5.804,0.078-11.609,0.139-17.414c10.881-1.667,21.762-3.333,32.642-4.999c0.051,25.147,0.271,50.295,0.086,75.439
		C311.649,330.563,312.994,344.39,321.011,356.772z"/>
	<path fill-rule="evenodd" clip-rule="evenodd" fill="#CC1A29" d="M331.865,364.78c8.417,1.794,16.873,3.266,25.516,2.039
		c3.907-0.555,7.775-1.397,11.663-2.109c-2.596,3.622-6.828,2.979-10.376,3.596c-7.889,1.368-15.816,0.967-23.536-1.468
		C333.885,366.444,332.562,366.087,331.865,364.78z"/>
	<path fill-rule="evenodd" clip-rule="evenodd" fill="#E92F39" d="M196.728,363.492c0.028,0.436,0.057,0.871,0.085,1.306
		c-15.307,0.007-30.611,0.014-45.916,0.021c0.011-0.338,0.021-0.675,0.032-1.013C166.194,363.701,181.461,363.597,196.728,363.492z"
		/>
	<path fill-rule="evenodd" clip-rule="evenodd" fill="#CC1A29" d="M323.869,359.78c0.927-0.144,1.542,0.327,2.036,1.035
		C325.042,360.833,324.252,360.708,323.869,359.78z"/>
	<path fill-rule="evenodd" clip-rule="evenodd" fill="#CC1A29" d="M371.776,363.801c0.352-0.953,1.277-0.951,2.036-1.226
		C373.555,363.683,372.729,363.845,371.776,363.801z"/>
	<path fill-rule="evenodd" clip-rule="evenodd" fill="#CC1A29" d="M329.868,363.776c0.895-0.102,1.744-0.111,2.028,1.012
		C331.01,364.872,330.253,364.696,329.868,363.776z"/>
	<path fill-rule="evenodd" clip-rule="evenodd" fill="#CC1A29" d="M369.294,364.801c0.589-0.975,1.544-1.052,2.538-1.03
		C371.296,364.878,370.3,364.85,369.294,364.801z"/>
	<path fill-rule="evenodd" clip-rule="evenodd" fill="#CC1A29" d="M320.864,356.787c0.503,0.342,1.007,0.685,1.511,1.028
		C321.872,357.473,321.368,357.13,320.864,356.787z"/>
	<path fill-rule="evenodd" clip-rule="evenodd" fill="#CC1A29" d="M322.881,358.38c0.34,0.479,0.679,0.959,1.019,1.438
		C323.56,359.34,323.22,358.86,322.881,358.38z"/>
	<path fill-rule="evenodd" clip-rule="evenodd" fill="#CC1A29" d="M325.856,360.779c0.351,0.348,0.699,0.695,1.049,1.043
		C326.556,361.476,326.206,361.127,325.856,360.779z"/>
	<path fill-rule="evenodd" clip-rule="evenodd" fill="#CC1A29" d="M326.855,361.783c0.512,0.342,1.022,0.686,1.534,1.028
		C327.879,362.469,327.367,362.126,326.855,361.783z"/>
	<path fill-rule="evenodd" clip-rule="evenodd" fill="#CC1A29" d="M328.637,362.714c0.632,0.122,1.201,0.316,1.261,1.098
		C329.478,363.445,329.057,363.079,328.637,362.714z"/>
	<path fill-rule="evenodd" clip-rule="evenodd" fill="#E92F39" d="M279.027,245.81c-0.036-2.829-0.097-5.657-0.104-8.486
		c-0.018-6.466-0.054-6.533-6.325-6.535c-23.143-0.008-46.287-0.095-69.428,0.089c-3.946,0.031-5.447-0.655-5.377-5.051
		c0.295-18.641,0.181-37.287,0.216-55.932c27.771,0,55.542,0.021,83.313-0.039c1.85-0.004,4.062,0.926,5.479-1.245
		c1.416-1.332,0.972-3.144,1.233-4.776c8.179-0.796,15.684-4.25,23.622-5.994c0.004,27.656,0.009,55.313,0.013,82.97
		C300.789,242.477,289.908,244.143,279.027,245.81z"/>
	<path fill-rule="evenodd" clip-rule="evenodd" fill="#FB3B43" d="M198.004,270.854c1.328-1.993,3.343-0.937,4.985-0.947
		c24.62-0.155,49.241-0.204,73.861-0.279c-1.09,1.874-2.936,1.235-4.496,1.237C247.57,270.89,222.787,270.866,198.004,270.854z"/>
	<path fill-rule="evenodd" clip-rule="evenodd" fill="#FB3B43" d="M286.801,168.61c-1.417,2.171-3.629,1.241-5.479,1.245
		c-27.771,0.061-55.543,0.039-83.313,0.039c1.275-2.094,3.319-0.981,4.938-0.987c26.125-0.088,52.252-0.057,78.379-0.07
		C283.151,168.836,284.976,168.689,286.801,168.61z"/>
</g>
</svg>
