<?xml version="1.0" encoding="utf-8"?>
<!-- Generator: Adobe Illustrator 16.0.0, SVG Export Plug-In . SVG Version: 6.00 Build 0)  -->
<!DOCTYPE svg PUBLIC "-//W3C//DTD SVG 1.1//EN" "http://www.w3.org/Graphics/SVG/1.1/DTD/svg11.dtd">
<svg version="1.1" id="圖層_1" xmlns="http://www.w3.org/2000/svg" xmlns:xlink="http://www.w3.org/1999/xlink" x="0px" y="0px"
	 width="513.11px" height="513.154px" viewBox="0 0 513.11 513.154" enable-background="new 0 0 513.11 513.154"
	 xml:space="preserve">
<g>
	<path fill-rule="evenodd" clip-rule="evenodd" fill="#C9C8BD" d="M402.339,189.994c11.351,0.002,22.702-0.025,34.054,0.012
		c8.287,0.025,16.484,0.953,24.473,3.168c22.425,6.221,35.594,22.898,35.775,46.479c0.165,21.125-5.972,40.285-20.161,56.465
		c-13.697,15.619-30.833,24.158-51.521,26.063c-15.635,1.438-31.279,0.566-46.917,0.859c-4.924,0.092-4.915,0.031-5.824,4.783
		c-2.485,12.992-4.976,25.98-7.475,38.969c-0.861,4.477-0.877,4.49-5.619,4.496c-10.319,0.012-20.64,0.029-30.957-0.01
		c-3.811-0.014-3.841-0.09-3.135-3.713c8.707-44.678,17.432-89.35,26.134-134.027c2.561-13.15,5.064-26.314,7.598-39.471
		c0.775-4.025,0.782-4.063,4.878-4.068C376.54,189.98,389.438,189.992,402.339,189.994z M378.85,294.383
		c6.646,0,12.807,0.012,18.966-0.002c7.221-0.018,14.445,0.111,21.598-1.248c9.712-1.844,18.714-5.201,24.682-13.537
		c9.079-12.68,12.309-27.059,10.785-42.471c-0.77-7.781-5.321-12.787-12.632-15.412c-5.232-1.879-10.644-2.814-16.162-2.898
		c-9.633-0.145-19.268-0.113-28.901-0.104c-3.71,0.002-3.708,0.064-4.458,3.9c-3.369,17.199-6.754,34.393-10.101,51.596
		C381.355,280.744,380.173,287.299,378.85,294.383z"/>
	<path fill-rule="evenodd" clip-rule="evenodd" fill="#C9C8BD" d="M188.39,237.289c-0.604-20.049-11.794-35.285-30.567-42.393
		c-9.128-3.455-18.644-4.639-28.303-4.861c-6.876-0.158-13.759-0.043-20.638-0.043c-17.372-0.002-34.744-0.002-52.114,0
		c-5.302,0-5.329,0-6.38,5.342c-1.492,7.586-2.934,15.18-4.408,22.768c-8.494,43.668-16.996,87.336-25.482,131.006
		c-1.4,7.207-2.729,14.428-4.029,21.318c1.101,1.037,1.993,0.857,2.835,0.857c10.835,0.012,21.671,0.025,32.507-0.002
		c3.798-0.01,3.835-0.053,4.57-3.773c2.699-13.65,5.473-27.285,7.969-40.973c0.52-2.844,1.622-3.584,4.33-3.539
		c8.597,0.146,17.198,0.029,25.798,0.063c7.915,0.029,15.808-0.145,23.692-1.01c16.735-1.836,31.496-7.889,43.915-19.502
		C181.013,284.846,189.157,262.822,188.39,237.289z M138.774,275.58c-5.935,10.568-15.729,15.355-27.179,17.518
		c-5.776,1.09-11.603,1.266-17.446,1.277c-7.698,0.016-15.396,0.004-23.489,0.004c1.801-9.273,3.497-17.994,5.185-26.717
		c2.867-14.826,5.713-29.658,8.6-44.482c0.871-4.465,0.918-4.48,5.518-4.477c9.279,0.01,18.559-0.02,27.836,0.105
		c5.693,0.076,11.259,1.045,16.643,3.008c7.787,2.838,11.963,8.529,12.576,16.602C148.015,251.588,145.245,264.055,138.774,275.58z"
		/>
	<path fill-rule="evenodd" clip-rule="evenodd" fill="#C9C8BD" d="M246.101,189.617c1.865,0.717,3.773,0.322,5.641,0.359
		c14.953,0.297,29.931-0.697,44.857,0.922c6.166,0.67,12.223,1.828,18.041,4.049c13.154,5.023,19.638,14.082,20.189,28.195
		c0.307,7.814-1.407,15.369-2.89,22.961c-4.81,24.615-9.609,49.23-14.347,73.861c-0.358,1.857-0.61,3.152-3.02,3.129
		c-12.039-0.119-24.079-0.084-36.119-0.123c-0.313-0.002-0.626-0.23-1.129-0.426c3.2-16.484,6.407-33.002,9.611-49.518
		c2.093-10.795,4.212-21.584,6.239-32.389c0.378-2.016,0.5-4.1,0.52-6.154c0.088-8.764-2.926-12.615-11.545-14.295
		c-3.355-0.656-6.836-0.873-10.263-0.918c-9.459-0.123-18.924,0.059-28.379-0.119c-2.815-0.051-3.887,0.973-4.393,3.609
		c-5.499,28.682-11.082,57.348-16.639,86.02c-0.752,3.879-1.534,7.752-2.183,11.648c-0.302,1.809-1.019,2.664-3.001,2.654
		c-12.021-0.068-24.043-0.033-36.66-0.033c1.412-7.436,2.721-14.459,4.083-21.473c7.402-38.111,14.817-76.221,22.231-114.33
		c2.724-13.994,5.545-27.973,8.114-41.996c0.474-2.592,1.396-3.426,3.966-3.398c10.834,0.111,21.672,0.016,32.508,0.064
		c3.255,0.016,3.392,0.219,2.722,3.697c-2.474,12.82-4.992,25.631-7.513,38.441C246.384,185.891,245.825,187.691,246.101,189.617z"
		/>
</g>
</svg>
