<?xml version="1.0" encoding="utf-8"?>
<!-- Generator: Adobe Illustrator 16.0.0, SVG Export Plug-In . SVG Version: 6.00 Build 0)  -->
<!DOCTYPE svg PUBLIC "-//W3C//DTD SVG 1.1//EN" "http://www.w3.org/Graphics/SVG/1.1/DTD/svg11.dtd">
<svg version="1.1" id="圖層_1" xmlns="http://www.w3.org/2000/svg" xmlns:xlink="http://www.w3.org/1999/xlink" x="0px" y="0px"
	 width="86.435px" height="86.435px" viewBox="0 0 86.435 86.435" enable-background="new 0 0 86.435 86.435" xml:space="preserve">
<g>
	<path fill-rule="evenodd" clip-rule="evenodd" fill="#0275AA" d="M74.376,82.375c-16.277,0-32.556,0-48.832,0
		c-0.525-1.462-2.946-1.219-2.876-3.244c0.164-4.637-0.422-9.313,0.395-14.264c7.523,2.947,14.938,3.638,22.49,2.786
		c12.825-1.446,23.109-10.917,24.19-22.162c1.093-11.379-6.104-22.12-17.767-26.032c-9.039-3.032-18.096-2.302-27.092,0.56
		C17.196,22.464,10.983,27.434,4.353,31.7c0-6.756,0-13.514,0-20.27c1.514-3.4,4.039-5.789,7.371-7.371c21.19,0,42.382,0,63.573,0
		c2.768,1.862,6.187,3.134,6.543,7.189c0.011,21.114-0.449,42.23,0.242,63.343C81.479,79.132,78.075,80.901,74.376,82.375z"/>
	<path fill-rule="evenodd" clip-rule="evenodd" fill="#0275AA" d="M4.06,39.071c1.109,0.491,1.036,2.672,2.525,2.242
		c1.483-0.428,0.667-2.083,0.929-3.192c0.789-3.327,3.376-5.271,5.879-7.275c1.418,0.945,0.774,2.289,0.778,3.38
		c0.052,14.221,0.032,28.441,0.035,42.661c0.001,1.807,0.394,3.757-1.849,4.671c-4.768,0.351-6.301-3.396-8.298-6.554
		C4.06,63.026,4.06,51.049,4.06,39.071z"/>
	<path fill-rule="evenodd" clip-rule="evenodd" fill="#1D83B3" d="M81.789,74.592c-0.691-21.112-0.231-42.229-0.242-63.343
		c0.285,0.021,0.562,0.08,0.828,0.182c0,20.885,0,41.768,0,62.652C82.18,74.253,81.984,74.422,81.789,74.592z"/>
	<path fill-rule="evenodd" clip-rule="evenodd" fill="#0275AA" d="M22.355,43.383c0.002-4.746,0.004-9.493,0-14.239
		c-0.002-1.373-0.158-2.768,1.291-3.65c8.848-5.379,25.469-7.252,33.147,5.266c4.763,7.763,5.19,16.065,0.092,23.822
		c-5.398,8.213-13.772,10.265-22.989,9.049c-11.563-1.524-11.541-1.689-11.541-13.357C22.355,47.976,22.355,45.679,22.355,43.383z"
		/>
</g>
</svg>
