<?xml version="1.0" encoding="utf-8"?>
<!-- Generator: Adobe Illustrator 16.0.0, SVG Export Plug-In . SVG Version: 6.00 Build 0)  -->
<!DOCTYPE svg PUBLIC "-//W3C//DTD SVG 1.1//EN" "http://www.w3.org/Graphics/SVG/1.1/DTD/svg11.dtd">
<svg version="1.1" id="圖層_1" xmlns="http://www.w3.org/2000/svg" xmlns:xlink="http://www.w3.org/1999/xlink" x="0px" y="0px"
	 width="160.393px" height="33.728px" viewBox="9.275 11.116 160.393 33.728" enable-background="new 9.275 11.116 160.393 33.728"
	 xml:space="preserve">
<g>
	<path fill="#3E3A39" d="M11.708,32.948c0.327-0.097,0.569-0.169,0.727-0.218c2.797-0.86,4.801-1.29,6.012-1.29
		c0.908,0,1.362,0.339,1.362,1.017c0,0.267-0.103,0.502-0.309,0.708s-0.436,0.309-0.69,0.309c-0.121,0-0.297-0.018-0.527-0.055
		c-0.193-0.036-0.351-0.054-0.472-0.054c-0.714,0-1.653,0.163-2.815,0.49c-0.424,0.133-1.241,0.472-2.452,1.017
		c-0.811,0.363-1.477,0.545-1.998,0.545c-0.375,0-0.684-0.175-0.926-0.527c-0.23-0.327-0.345-0.672-0.345-1.035
		c0-0.448,0.248-1.205,0.745-2.271c1.513-3.293,3.136-6.248,4.868-8.863c2.482-3.753,4.407-6.508,5.775-8.264
		c0.375-0.472,0.751-0.951,1.126-1.435c0.593-0.799,1.108-1.199,1.544-1.199c0.218,0,0.412,0.085,0.582,0.254
		c0.157,0.169,0.236,0.345,0.236,0.527c0,0.266-0.206,0.678-0.618,1.235c-0.084,0.109-0.587,0.769-1.507,1.979
		c-1.719,2.265-3,3.996-3.841,5.195c-0.842,1.199-1.741,2.585-2.697,4.159C13.609,28.262,12.35,30.853,11.708,32.948z"/>
	<path fill="#3E3A39" d="M26.457,31.477c-0.399,0.703-0.793,1.296-1.18,1.78c-0.763,0.945-1.52,1.417-2.271,1.417
		c-0.654,0-1.163-0.309-1.525-0.926c-0.23-0.4-0.345-0.872-0.345-1.417c0-1.344,0.424-2.827,1.271-4.45
		c0.944-1.804,2.082-3.19,3.415-4.159c0.872-0.629,1.713-0.944,2.524-0.944c0.508,0,0.932,0.157,1.271,0.472
		c0.291,0.279,0.436,0.593,0.436,0.944c0,0.267-0.103,0.636-0.309,1.108c0.182,0.254,0.272,0.479,0.272,0.672
		c0,0.254-0.17,0.672-0.508,1.253c-0.352,0.593-0.703,1.38-1.054,2.361c-0.375,1.042-0.563,1.877-0.563,2.506
		c0,0.508,0.151,0.926,0.454,1.253c0.084,0.085,0.333,0.225,0.745,0.418c0.303,0.146,0.454,0.399,0.454,0.763
		c0,0.23-0.085,0.418-0.254,0.563c-0.182,0.158-0.394,0.236-0.636,0.236c-0.654,0-1.217-0.291-1.689-0.872
		c-0.388-0.472-0.581-1.065-0.581-1.78C26.384,32.433,26.408,32.034,26.457,31.477z M28.727,25.501
		c-0.146-0.266-0.303-0.463-0.472-0.59c-0.17-0.127-0.352-0.191-0.545-0.191c-0.92,0-1.919,0.805-2.997,2.416
		c-1.187,1.78-1.78,3.288-1.78,4.522c0,0.303,0.058,0.533,0.173,0.69c0.115,0.157,0.287,0.236,0.518,0.236
		c0.581,0,1.259-0.618,2.034-1.853c0.436-0.678,0.975-1.677,1.616-2.997c0.424-0.86,0.732-1.429,0.926-1.708
		C28.297,25.883,28.473,25.707,28.727,25.501z"/>
	<path fill="#3E3A39" d="M37.318,23.213c0.956,0,1.435,0.502,1.435,1.507c0,0.884-0.345,1.774-1.035,2.67
		c-0.533,0.678-0.999,1.017-1.398,1.017c-0.339,0-0.508-0.193-0.508-0.581c0-0.206,0.048-0.37,0.145-0.491
		c0.036-0.048,0.182-0.188,0.436-0.417c0.218-0.206,0.442-0.515,0.672-0.926c0.157-0.278,0.236-0.502,0.236-0.672
		c0-0.193-0.109-0.291-0.327-0.291c-0.254,0-0.642,0.2-1.162,0.6c-0.824,0.642-1.647,1.646-2.47,3.015
		c-0.848,1.429-1.271,2.555-1.271,3.378c0,0.267,0.079,0.502,0.236,0.708c0.229,0.315,0.539,0.472,0.926,0.472
		c0.763,0,1.665-0.472,2.706-1.417c0.884-0.812,1.628-1.623,2.234-2.434c0.315-0.448,0.587-0.672,0.817-0.672
		c0.133,0,0.254,0.061,0.363,0.182c0.097,0.121,0.145,0.242,0.145,0.363c0,0.448-0.575,1.32-1.725,2.615
		c-1.829,2.034-3.487,3.051-4.977,3.051c-0.896,0-1.58-0.321-2.052-0.962c-0.339-0.472-0.509-1.029-0.509-1.671
		c0-1.259,0.521-2.718,1.562-4.377c1.005-1.586,2.167-2.863,3.487-3.832C36.058,23.491,36.737,23.213,37.318,23.213z"/>
	<path fill="#3E3A39" d="M48.36,26.7c-0.787,1.95-1.181,3.433-1.181,4.45c0,0.497,0.097,0.908,0.291,1.235
		c0.242,0.412,0.563,0.618,0.962,0.618c0.823,0,1.774-0.551,2.852-1.653c0.714-0.702,1.313-1.417,1.798-2.143
		c0.315-0.484,0.611-0.727,0.89-0.727c0.278,0,0.418,0.139,0.418,0.417c0,0.46-0.557,1.405-1.671,2.833
		c-1.647,2.119-3.245,3.178-4.795,3.178c-0.933,0-1.593-0.454-1.98-1.362c-0.291-0.666-0.436-1.368-0.436-2.107
		c0-0.618,0.146-1.532,0.436-2.743c-0.787,0.654-1.979,2.252-3.578,4.795c-0.423,0.69-0.811,1.035-1.162,1.035
		c-0.182,0-0.339-0.079-0.472-0.236c-0.133-0.169-0.2-0.339-0.2-0.509c0-0.484,0.636-2.101,1.907-4.849
		c2.24-4.807,4.638-8.851,7.192-12.133c1.38-1.792,2.622-3.1,3.723-3.923c0.993-0.751,1.786-1.126,2.379-1.126
		c0.266,0,0.502,0.109,0.708,0.327c0.266,0.267,0.399,0.593,0.399,0.981c0,1.029-0.539,2.349-1.616,3.959
		c-1.126,1.659-3.04,3.663-5.74,6.012c-1.514,1.308-2.875,2.337-4.086,3.087c-0.157,0.315-0.599,1.235-1.326,2.761
		c1.513-1.635,2.712-2.761,3.596-3.378c0.569-0.387,1.338-0.792,2.307-1.217c0.654-0.278,1.126-0.417,1.417-0.417
		c0.157,0,0.297,0.061,0.418,0.182c0.133,0.109,0.2,0.254,0.2,0.436c0,0.4-0.272,0.678-0.817,0.835
		C50.273,25.598,49.329,26.058,48.36,26.7z M46.798,23.576c1.986-1.308,3.838-2.973,5.558-4.995c0.859-1.005,1.55-1.973,2.07-2.906
		c0.363-0.654,0.545-1.12,0.545-1.398c0-0.278-0.127-0.418-0.381-0.418c-0.678,0-1.847,1.042-3.505,3.124
		C49.716,18.715,48.288,20.912,46.798,23.576z"/>
	<path fill="#3E3A39" d="M57.496,28.244c0.157-0.145,0.309-0.291,0.454-0.436c2.53-2.47,4.226-3.705,5.085-3.705
		c0.472,0,0.708,0.261,0.708,0.781c0,0.363-0.212,0.793-0.636,1.29c-2.313,2.7-3.469,5.08-3.469,7.138
		c0,0.666,0.182,1.302,0.545,1.907c0.169,0.278,0.254,0.497,0.254,0.654c0,0.145-0.073,0.284-0.218,0.417
		c-0.158,0.169-0.345,0.254-0.563,0.254c-0.497,0-0.914-0.315-1.253-0.944c-0.327-0.593-0.49-1.314-0.49-2.162
		c0-1.634,0.617-3.444,1.853-5.43c-1.647,1.053-3.179,2.918-4.595,5.594c-0.363,0.642-0.75,0.963-1.163,0.963
		c-0.206,0-0.375-0.073-0.508-0.218c-0.169-0.169-0.254-0.387-0.254-0.654c0-0.654,0.745-2.367,2.234-5.14
		c0.799-1.501,1.429-2.591,1.889-3.269c0.46-0.666,0.854-0.999,1.18-0.999c0.157,0,0.309,0.073,0.454,0.218
		c0.169,0.169,0.254,0.363,0.254,0.581c0,0.267-0.176,0.648-0.527,1.144C58.223,26.966,57.811,27.638,57.496,28.244z"/>
	<path fill="#3E3A39" d="M65.125,30.986v0.327c0,0.267,0.066,0.497,0.2,0.69c0.303,0.448,0.799,0.672,1.489,0.672
		c1.514,0,3.263-1.162,5.249-3.487c0.351-0.399,0.647-0.599,0.89-0.599c0.133,0,0.254,0.066,0.363,0.2
		c0.073,0.097,0.109,0.188,0.109,0.272c0,0.472-0.581,1.271-1.744,2.397c-0.908,0.884-1.877,1.604-2.906,2.161
		c-1.03,0.557-1.986,0.835-2.87,0.835c-0.908,0-1.622-0.314-2.143-0.944c-0.351-0.436-0.527-1.029-0.527-1.78
		c0-2.046,0.963-4.05,2.888-6.012c1.562-1.599,2.924-2.397,4.086-2.397c0.315,0,0.6,0.097,0.854,0.291
		c0.315,0.254,0.472,0.587,0.472,0.999c0,0.642-0.297,1.429-0.89,2.361C69.423,28.91,67.583,30.248,65.125,30.986z M65.524,29.569
		c0.848-0.291,1.514-0.617,1.998-0.98c0.847-0.654,1.52-1.393,2.016-2.216c0.182-0.291,0.272-0.551,0.272-0.781
		c0-0.242-0.115-0.363-0.345-0.363c-0.315,0-0.763,0.236-1.344,0.708C67.08,26.772,66.214,27.983,65.524,29.569z"/>
	<path fill="#3E3A39" d="M75.332,30.986v0.327c0,0.267,0.066,0.497,0.2,0.69c0.303,0.448,0.799,0.672,1.489,0.672
		c1.514,0,3.263-1.162,5.249-3.487c0.351-0.399,0.647-0.599,0.89-0.599c0.133,0,0.254,0.066,0.363,0.2
		c0.073,0.097,0.109,0.188,0.109,0.272c0,0.472-0.581,1.271-1.744,2.397c-0.908,0.884-1.877,1.604-2.906,2.161
		c-1.03,0.557-1.986,0.835-2.87,0.835c-0.908,0-1.622-0.314-2.143-0.944c-0.351-0.436-0.527-1.029-0.527-1.78
		c0-2.046,0.963-4.05,2.888-6.012c1.562-1.599,2.924-2.397,4.086-2.397c0.315,0,0.6,0.097,0.854,0.291
		c0.315,0.254,0.472,0.587,0.472,0.999c0,0.642-0.297,1.429-0.89,2.361C79.63,28.91,77.79,30.248,75.332,30.986z M75.731,29.569
		c0.848-0.291,1.514-0.617,1.998-0.98c0.847-0.654,1.52-1.393,2.016-2.216c0.182-0.291,0.272-0.551,0.272-0.781
		c0-0.242-0.115-0.363-0.345-0.363c-0.315,0-0.763,0.236-1.344,0.708C77.287,26.772,76.422,27.983,75.731,29.569z"/>
	<path fill="#3E3A39" d="M90.77,22.777c-0.788,1.223-1.514,2.591-2.18,4.104c-0.957,2.156-1.435,3.766-1.435,4.832
		c0,0.303,0.064,0.533,0.191,0.69c0.127,0.158,0.318,0.236,0.572,0.236c0.605,0,1.338-0.569,2.198-1.708
		c0.544-0.702,1.028-1.404,1.452-2.107c0.23-0.399,0.479-0.599,0.746-0.599c0.156,0,0.291,0.055,0.399,0.164
		c0.097,0.109,0.146,0.218,0.146,0.327c0,0.448-0.588,1.447-1.762,2.997c-1.406,1.865-2.688,2.797-3.852,2.797
		c-0.617,0-1.132-0.284-1.543-0.854c-0.254-0.363-0.381-0.878-0.381-1.544c0-1.465,0.423-3.172,1.271-5.122
		c0.206-0.484,0.775-1.653,1.708-3.505c-0.327,0.084-0.575,0.127-0.745,0.127c-0.254,0-0.479-0.061-0.672-0.182
		c-0.267-0.169-0.4-0.381-0.4-0.636c0-0.302,0.175-0.545,0.527-0.727c0.097-0.048,0.545-0.127,1.344-0.236
		c0.291-0.048,0.714-0.164,1.271-0.345c0.424-0.763,1.114-1.798,2.071-3.106c0.533-0.727,0.902-1.199,1.107-1.417
		c0.291-0.303,0.545-0.454,0.764-0.454c0.156,0,0.313,0.085,0.472,0.254c0.146,0.157,0.218,0.315,0.218,0.472
		c0,0.315-0.339,0.938-1.017,1.871c-0.448,0.605-0.781,1.096-0.999,1.471c1.344-0.363,2.307-0.545,2.888-0.545
		c0.666,0,0.999,0.279,0.999,0.835c0,0.279-0.115,0.484-0.345,0.618c-0.121,0.073-0.437,0.133-0.944,0.182
		c-0.206-0.012-1.119,0.218-2.742,0.69C91.646,22.493,91.206,22.631,90.77,22.777z"/>
	<path fill="#3E3A39" d="M101.541,22.414c0.75,0,1.313,0.133,1.689,0.399c0.375,0.267,0.563,0.672,0.563,1.217
		c0,0.715-0.266,1.405-0.799,2.071c-0.51,0.63-1.271,1.138-2.289,1.525c-0.557,0.206-1.023,0.309-1.398,0.309
		c-0.509,0-0.763-0.224-0.763-0.672c0-0.302,0.146-0.532,0.437-0.69c0.072-0.036,0.483-0.139,1.234-0.309
		c0.448-0.097,0.859-0.309,1.235-0.636c0.327-0.278,0.489-0.582,0.489-0.908c0-0.254-0.072-0.442-0.217-0.563
		c-0.146-0.121-0.363-0.182-0.654-0.182c-0.703,0-1.479,0.285-2.325,0.854c-0.981,0.642-1.472,1.405-1.472,2.289
		c0,0.63,0.32,1.417,0.963,2.361c0.714,1.029,1.072,1.901,1.072,2.615c0,1.065-0.473,1.901-1.418,2.506
		c-0.58,0.375-1.24,0.563-1.979,0.563c-1.163,0-2.047-0.417-2.652-1.253c-0.424-0.593-0.636-1.296-0.636-2.107
		c0-0.945,0.243-1.737,0.728-2.379c0.314-0.424,0.642-0.636,0.98-0.636c0.302,0,0.454,0.121,0.454,0.363
		c0,0.097-0.056,0.242-0.164,0.436c-0.279,0.521-0.418,1.132-0.418,1.834c0,0.593,0.212,1.096,0.636,1.507
		c0.375,0.363,0.805,0.545,1.29,0.545c0.472,0,0.843-0.157,1.108-0.472c0.218-0.266,0.326-0.605,0.326-1.017
		c0-0.509-0.291-1.168-0.871-1.98c-0.799-1.114-1.199-2.125-1.199-3.033c0-1.21,0.66-2.282,1.98-3.214
		C98.755,22.862,100.111,22.414,101.541,22.414z"/>
	<path fill="#3E3A39" d="M128.33,11.116c0.811,0,1.436,0.291,1.871,0.872c0.351,0.46,0.527,1.017,0.527,1.671
		c0,1.175-0.395,2.513-1.182,4.014c-0.689,1.295-1.55,2.458-2.579,3.487c-0.678,0.666-1.211,0.999-1.598,0.999
		c-0.254,0-0.49-0.127-0.708-0.381c-0.157-0.182-0.236-0.387-0.236-0.618c0-0.423,0.369-0.908,1.108-1.453
		c1.041-0.775,1.87-1.623,2.487-2.543c0.908-1.332,1.362-2.458,1.362-3.378c0-0.375-0.082-0.654-0.245-0.835
		c-0.162-0.181-0.408-0.272-0.734-0.272c-0.666,0-1.611,0.485-2.834,1.453c-1.393,1.09-2.863,2.573-4.413,4.45
		c-1.974,2.386-3.476,4.735-4.505,7.047c-1.064,2.397-1.598,4.444-1.598,6.139c0,0.812,0.236,1.501,0.709,2.071
		c0.521,0.642,1.155,0.962,1.906,0.962c1.309,0,2.955-1.017,4.939-3.051c0.594-0.618,1.313-1.513,2.162-2.688
		c0.557-0.75,0.914-1.283,1.071-1.598c0.183-0.351,0.394-0.527,0.636-0.527c0.267,0,0.399,0.127,0.399,0.381
		c0,0.545-0.678,1.768-2.034,3.669c-1.126,1.586-2.367,2.882-3.723,3.887c-1.525,1.126-2.967,1.689-4.323,1.689
		c-1.417,0-2.513-0.636-3.288-1.907c-0.496-0.811-0.744-1.737-0.744-2.779c0-2.615,1.234-5.915,3.705-9.898
		c2.106-3.39,4.328-6.121,6.666-8.191C125.158,12.006,126.889,11.116,128.33,11.116z"/>
	<path fill="#3E3A39" d="M131.926,27.045c0.896-0.932,1.792-1.713,2.688-2.343c1.15-0.799,1.974-1.199,2.471-1.199
		c0.206,0,0.406,0.085,0.6,0.254c0.219,0.193,0.328,0.417,0.328,0.672c0,0.327-0.261,0.835-0.781,1.525
		c-1.006,1.332-1.769,2.543-2.289,3.633c-0.461,0.944-0.69,1.586-0.69,1.925c0,0.327,0.157,0.49,0.472,0.49
		c0.654,0,1.756-1.163,3.307-3.487c0.313-0.472,0.599-0.708,0.854-0.708c0.256,0,0.381,0.146,0.381,0.436
		c0,0.472-0.459,1.375-1.38,2.706c-0.799,1.163-1.635,2.053-2.506,2.67c-0.618,0.424-1.175,0.636-1.671,0.636
		c-0.521,0-0.896-0.224-1.126-0.672c-0.146-0.278-0.218-0.587-0.218-0.926c0-1.078,0.381-2.307,1.145-3.687
		c0.182-0.327,0.727-1.259,1.635-2.797c-2.471,1.247-4.56,3.941-6.267,8.082c-0.157,0.472-0.399,0.708-0.728,0.708
		c-0.229,0-0.416-0.079-0.563-0.236c-0.145-0.169-0.218-0.375-0.218-0.617c0-0.4,0.388-1.532,1.163-3.396
		c1.439-3.463,2.785-6.393,4.031-8.791c1.248-2.422,2.635-4.934,4.16-7.538c0.362-0.629,0.647-1.053,0.854-1.271
		c0.205-0.218,0.423-0.327,0.654-0.327c0.217,0,0.404,0.115,0.563,0.345c0.121,0.17,0.182,0.363,0.182,0.582
		c0,0.339-0.193,0.793-0.582,1.362c-1.308,2.022-2.608,4.244-3.904,6.666C133.096,24.333,132.241,26.101,131.926,27.045z"/>
	<path fill="#3E3A39" d="M144.477,31.477c-0.398,0.703-0.793,1.296-1.18,1.78c-0.763,0.945-1.52,1.417-2.271,1.417
		c-0.653,0-1.162-0.309-1.524-0.926c-0.229-0.4-0.345-0.872-0.345-1.417c0-1.344,0.424-2.827,1.271-4.45
		c0.943-1.804,2.081-3.19,3.414-4.159c0.872-0.629,1.713-0.944,2.524-0.944c0.508,0,0.932,0.157,1.271,0.472
		c0.291,0.279,0.437,0.593,0.437,0.944c0,0.267-0.103,0.636-0.31,1.108c0.182,0.254,0.272,0.479,0.272,0.672
		c0,0.254-0.17,0.672-0.509,1.253c-0.352,0.593-0.702,1.38-1.053,2.361c-0.375,1.042-0.563,1.877-0.563,2.506
		c0,0.508,0.151,0.926,0.454,1.253c0.084,0.085,0.333,0.225,0.744,0.418c0.304,0.146,0.455,0.399,0.455,0.763
		c0,0.23-0.086,0.418-0.254,0.563c-0.183,0.158-0.395,0.236-0.637,0.236c-0.654,0-1.217-0.291-1.689-0.872
		c-0.387-0.472-0.58-1.065-0.58-1.78C144.404,32.433,144.428,32.034,144.477,31.477z M146.747,25.501
		c-0.146-0.266-0.304-0.463-0.472-0.59c-0.17-0.127-0.353-0.191-0.545-0.191c-0.92,0-1.92,0.805-2.998,2.416
		c-1.187,1.78-1.779,3.288-1.779,4.522c0,0.303,0.059,0.533,0.173,0.69c0.115,0.157,0.287,0.236,0.519,0.236
		c0.58,0,1.258-0.618,2.033-1.853c0.437-0.678,0.975-1.677,1.616-2.997c0.424-0.86,0.731-1.429,0.927-1.708
		C146.316,25.883,146.493,25.707,146.747,25.501z"/>
	<path fill="#3E3A39" d="M152.123,28.244c0.156-0.145,0.309-0.291,0.454-0.436c2.53-2.47,4.226-3.705,5.085-3.705
		c0.472,0,0.708,0.261,0.708,0.781c0,0.363-0.212,0.793-0.636,1.29c-2.313,2.7-3.469,5.08-3.469,7.138
		c0,0.666,0.182,1.302,0.545,1.907c0.168,0.278,0.254,0.497,0.254,0.654c0,0.145-0.073,0.284-0.219,0.417
		c-0.158,0.169-0.345,0.254-0.563,0.254c-0.497,0-0.914-0.315-1.254-0.944c-0.326-0.593-0.489-1.314-0.489-2.162
		c0-1.634,0.617-3.444,1.853-5.43c-1.646,1.053-3.179,2.918-4.595,5.594c-0.362,0.642-0.75,0.963-1.163,0.963
		c-0.205,0-0.375-0.073-0.508-0.218c-0.169-0.169-0.254-0.387-0.254-0.654c0-0.654,0.745-2.367,2.234-5.14
		c0.799-1.501,1.429-2.591,1.889-3.269c0.46-0.666,0.854-0.999,1.18-0.999c0.157,0,0.309,0.073,0.454,0.218
		c0.169,0.169,0.254,0.363,0.254,0.581c0,0.267-0.176,0.648-0.526,1.144C152.85,26.966,152.438,27.638,152.123,28.244z"/>
	<path fill="#3E3A39" d="M163.766,32.912c1.295-0.945,2.258-1.804,2.887-2.579c0.933-1.126,1.593-2.04,1.979-2.743
		c0.194-0.315,0.394-0.472,0.601-0.472c0.291,0,0.436,0.139,0.436,0.417c0,0.327-0.23,0.872-0.689,1.635
		c-1.43,2.325-3.572,4.353-6.431,6.084c-1.332,2.784-2.313,4.674-2.942,5.667c-1.67,2.615-3.244,3.923-4.722,3.923
		c-0.774,0-1.331-0.303-1.671-0.908c-0.193-0.352-0.291-0.751-0.291-1.198c0-1.901,1.223-3.724,3.669-5.467
		c0.388-0.291,1.956-1.199,4.704-2.725c0.533-1.126,0.944-2.01,1.234-2.651c-1.271,1.332-2.324,1.998-3.159,1.998
		c-0.521,0-0.927-0.266-1.218-0.799c-0.182-0.351-0.271-0.714-0.271-1.09c0-0.872,0.357-1.992,1.071-3.36
		c1.017-1.973,2.239-3.535,3.669-4.686c1.199-0.957,2.258-1.435,3.178-1.435c0.473,0,0.879,0.176,1.217,0.527
		c0.229,0.23,0.346,0.569,0.346,1.017c0,0.557-0.188,1.247-0.563,2.07c0.278,0.267,0.418,0.466,0.418,0.6
		c0,0.085-0.062,0.206-0.182,0.363c-0.327,0.448-0.854,1.29-1.58,2.524C164.813,30.702,164.25,31.798,163.766,32.912z
		 M160.206,36.653c-1.599,0.678-3.009,1.708-4.231,3.088c-0.57,0.642-0.976,1.319-1.218,2.034c-0.073,0.218-0.108,0.399-0.108,0.545
		c0,0.157,0.035,0.297,0.108,0.418c0.134,0.218,0.321,0.326,0.563,0.326c0.75,0,1.628-0.805,2.633-2.415
		C158.825,39.256,159.576,37.924,160.206,36.653z M163.639,28.716c-0.17-0.182-0.255-0.309-0.255-0.381
		c0-0.109,0.091-0.248,0.272-0.417c0.605-0.582,1.096-1.187,1.471-1.816c0.303-0.497,0.454-0.884,0.454-1.163
		c0-0.327-0.151-0.49-0.454-0.49c-0.521,0-1.266,0.497-2.234,1.489c-1.149,1.175-2.045,2.488-2.688,3.941
		c-0.314,0.727-0.473,1.284-0.473,1.671c0,0.218,0.049,0.381,0.146,0.49s0.235,0.164,0.418,0.164c0.425,0,1.017-0.436,1.78-1.308
		c0.484-0.557,0.896-1.102,1.234-1.635C163.541,28.91,163.65,28.728,163.639,28.716z"/>
</g>
</svg>
